<svg width="174" height="40" viewBox="0 0 174 40" fill="none" xmlns="http://www.w3.org/2000/svg">
<path d="M28.5345 0.0420532H35.2445L36.8998 19.7267H30.2194L30.1871 16.5143H22.531L20.262 19.7267H13.4578L28.5345 0.0420532ZM30.0902 12.5456L29.961 5.93115L25.2912 12.5456H30.0902ZM49.9646 19.7267H41.7285C37.8055 19.7267 36.2175 16.6085 37.644 11.9777C39.0706 7.3173 42.6046 4.2301 46.4615 4.2301C47.5012 4.2077 48.5323 4.42312 49.4761 4.85992L51.0977 0.0420532H56.5118L49.9646 19.7267ZM47.9217 9.49072C47.3781 9.3035 46.8099 9.19739 46.2354 9.17581C44.599 9.31846 43.2613 10.5041 42.9612 12.0733C42.5077 13.742 43.2519 14.8146 44.8412 14.8146C45.3135 14.783 45.7807 14.6986 46.2341 14.5629L47.9217 9.49072Z" fill="#FFCC00"/>
<path fill-rule="evenodd" clip-rule="evenodd" d="M55.2479 4.48309H61.0549L60.4722 12.5779L66.0814 4.48309H71.0083L59.985 19.7293H55.509L55.2479 4.48309Z" fill="#FFCC00"/>
<path d="M78.2364 19.9164C75.4533 20.1048 74.2152 19.7899 73.8263 18.498C72.5174 19.4309 70.9573 19.9469 69.3502 19.9783C66.2698 19.9783 65.5565 18.2153 66.2038 16.264C66.5672 15.2372 67.232 14.3395 68.1175 13.6774C70.0958 12.0706 73.9245 11.8202 75.8005 10.5916C76.2217 9.20541 75.7682 8.41813 74.2448 8.70209C72.2988 9.0789 71.3918 9.61452 68.5387 11.286L69.9976 6.81531C72.1234 5.37146 74.5768 4.48271 77.1342 4.23009C80.3115 3.97843 82.8402 5.67948 81.5752 9.51897L80.1487 13.8322C79.6656 15.3758 79.5969 15.8172 81.1553 15.8481L78.2364 19.9164ZM74.8316 13.5226C73.4696 14.3449 71.7188 14.2157 71.202 15.8845C70.9436 16.6717 71.268 17.2706 71.9799 17.2706C72.7216 17.2005 73.4236 16.9035 73.9905 16.4201C74.0241 16.0298 74.1223 15.6449 74.2825 15.2856L74.8316 13.5226Z" fill="#FFCC00"/>
<path fill-rule="evenodd" clip-rule="evenodd" d="M85.369 4.48176H90.7831L90.1007 6.46409C92.1127 4.85723 93.5378 4.2301 95.2887 4.2301C98.3032 4.2301 99.3422 6.27837 98.2063 9.64818L94.8688 19.7267H89.4534L92.2082 11.3829C92.6927 9.83928 92.437 9.1489 91.3617 9.1489C90.8154 9.20527 90.2881 9.38137 89.8176 9.66468C89.347 9.948 88.9447 10.3316 88.6392 10.7881L85.688 19.7011H80.2766L85.369 4.48176ZM107.998 19.039C106.505 19.6481 104.909 19.9674 103.296 19.9797C98.6935 19.9797 96.5214 16.7673 98.0448 12.2011C99.3099 8.38854 103.005 4.23145 108.353 4.23145C109.787 4.21216 111.209 4.48032 112.537 5.02007L110.855 10.0573C109.91 9.47527 108.821 9.16988 107.712 9.17582C105.787 9.17447 104.078 10.3655 103.463 12.1365C102.911 13.8685 103.918 15.0663 105.895 15.0663C107.178 15.0022 108.435 14.6819 109.592 14.1242L107.998 19.039Z" fill="#FFCC00"/>
<path d="M123.333 17.459C122.392 18.3243 121.288 18.993 120.086 19.4259C118.883 19.8587 117.606 20.047 116.33 19.9797C111.564 19.9797 109.651 16.4834 111.108 12.0423C112.602 7.57165 116.751 4.23145 120.835 4.23145C125.05 4.23145 126.932 7.66451 124.792 12.9292H116.038C115.9 13.298 115.863 13.6968 115.931 14.0846C115.998 14.4724 116.168 14.8354 116.421 15.1362C116.939 15.7553 117.754 16.0648 118.566 15.9531C120.634 15.8644 122.644 15.2457 124.403 14.1565L123.333 17.459ZM120.644 10.6871C121.261 8.7667 120.936 7.79101 119.608 7.79101C118.406 7.79101 117.402 8.64154 116.851 10.6871H120.644Z" fill="#FFCC00"/>
<path d="M65.1017 21.674H73.7281C78.5581 21.674 79.4974 24.2915 78.6227 27.0477C77.7749 29.6989 75.1856 32.6434 69.9021 32.6434H67.4366L65.492 38.7317H59.5908L65.1017 21.674ZM69.8671 29.2346C70.5391 29.2895 71.209 29.1067 71.76 28.7181C72.3109 28.3295 72.7079 27.7597 72.8816 27.1082C73.3029 25.7625 72.8816 25.0452 71.1644 25.0452H69.8725L68.5429 29.2346H69.8671ZM12.5466 21.674H18.1558L19.5177 38.7572H13.9732L13.9409 35.9755H7.55382L5.67377 38.7572H0L12.5466 21.674ZM13.8776 32.5061L13.7807 26.7462L9.89008 32.5061H13.8776ZM85.5279 38.9201C83.2279 39.0843 82.1876 38.8232 81.8633 37.7089C80.7856 38.5152 79.4813 38.9616 78.1355 38.9847C75.5745 38.9847 74.9595 37.4465 75.5086 35.7454C75.8233 34.8626 76.3722 34.082 77.0966 33.4872C78.7519 32.0809 81.9279 31.8844 83.4836 30.801C83.8402 29.5898 83.4513 28.9035 82.1863 29.1646C80.566 29.4916 79.8204 29.9505 77.4223 31.4228L78.6536 27.5604C80.4202 26.3183 82.4717 25.542 84.6181 25.3036C87.28 25.1071 89.3848 26.5471 88.3149 29.8846L87.1145 33.6487C86.6933 34.9918 86.661 35.3834 87.9623 35.4157L85.5279 38.9201ZM82.6748 33.3567C81.5403 34.078 80.0802 33.9461 79.6266 35.4184C79.3992 36.1047 79.6603 36.6296 80.2753 36.6296C80.8871 36.5637 81.4642 36.3125 81.9293 35.9096C81.9508 35.5731 82.0275 35.2434 82.1567 34.9326L82.6748 33.3567Z" fill="#FFCC00"/>
<path fill-rule="evenodd" clip-rule="evenodd" d="M32.3226 33.9138C31.9323 35.1263 32.3885 35.6498 33.6199 35.2246L31.3213 38.7909C30.652 38.9458 29.9669 39.0226 29.2798 39.0196C27.529 39.0196 26.9126 38.3992 27.101 36.7291C26.5159 37.4042 25.8011 37.9548 24.9992 38.3485C24.1973 38.7422 23.3245 38.9709 22.4325 39.021C20.5215 39.021 18.8662 37.8757 20.0976 34.0147L22.7905 25.57H27.3298L25.0608 32.7362C24.6073 34.1439 24.832 34.7334 25.7741 34.7334C26.455 34.7334 27.1064 34.3404 27.9785 33.3903L30.4762 25.6009H35.0141L32.3226 33.9138ZM42.2436 37.5137C40.9528 38.4551 39.4002 38.9699 37.8026 38.986C36.5914 39.1085 35.4071 38.5728 34.6912 37.5797C34.2699 36.8274 34.3332 35.8773 34.9186 34.078L36.6049 28.8429H34.5943L35.1124 27.2065L42.4078 21.5771H43.4454L42.1804 25.5377H45.8113L44.7414 28.8429H41.1118L39.8468 32.8035C39.4579 34.0147 39.719 34.5382 40.6583 34.5382C41.6826 34.4596 42.6674 34.1093 43.5114 33.5235L42.2436 37.5137Z" fill="#FFCC00"/>
<path d="M53.267 25.3076C58.1629 25.3076 58.8762 28.9411 57.8695 32.1454C56.6785 36.1329 53.0786 38.8931 48.9538 38.9833C44.0579 38.9833 43.28 35.3834 44.3176 32.1454C45.5046 28.1404 49.126 25.3735 53.267 25.3076ZM50.2834 34.6984C50.9941 34.6441 51.6701 34.369 52.2167 33.9114C52.7633 33.4539 53.1531 32.8369 53.3316 32.1468C53.7851 30.6409 53.2347 29.5938 51.9051 29.5938C51.1926 29.6434 50.5141 29.917 49.9666 30.3755C49.4191 30.8341 49.0307 31.4541 48.8569 32.1468C48.3724 33.6527 48.9874 34.6984 50.2847 34.6984H50.2834Z" fill="#FFCC00"/>
<path fill-rule="evenodd" clip-rule="evenodd" d="M119.635 29.8576C118.923 29.0961 117.951 28.6294 116.911 28.5495C116.616 28.5377 116.326 28.6199 116.081 28.7845C115.836 28.949 115.65 29.1872 115.549 29.4647C115.128 30.8077 117.462 30.4794 118.435 32.2733C118.871 33.1144 118.93 34.1035 118.596 34.9891C118.185 36.1694 117.412 37.1902 116.388 37.9069C115.364 38.6235 114.14 38.9997 112.89 38.982C111.288 39.0664 109.703 38.6173 108.383 37.7048L109.551 33.942C109.876 34.4661 110.322 34.9036 110.853 35.217C111.384 35.5304 111.983 35.7103 112.598 35.7413C113.276 35.7911 113.902 35.3753 114.123 34.7266C114.675 33.0902 109.843 33.0902 111.076 29.1955C111.498 27.9993 112.3 26.9743 113.36 26.277C114.419 25.5798 115.678 25.2487 116.944 25.3345C118.294 25.2559 119.631 25.6368 120.737 26.4151L119.635 29.8576ZM95.7719 25.57L94.6374 29.104H94.6697C96.2577 26.6157 97.9439 25.3399 99.5333 25.3399C100.452 25.3605 101.33 25.7222 101.996 26.3546L98.3342 31.591C97.8497 30.8064 97.3653 30.478 96.7462 30.478C95.6427 30.478 94.4463 31.7215 93.7317 33.2597L91.9808 38.7249H87.4402L91.6551 25.5041H95.7678L95.7719 25.57ZM106.048 21.5757L100.991 28.8416H102.028L100.342 34.0766C99.7594 35.8773 99.6934 36.826 100.115 37.5783C100.469 38.0686 100.946 38.4567 101.498 38.7036C102.051 38.9505 102.658 39.0475 103.26 38.9847C104.855 38.953 106.403 38.4398 107.701 37.5124L108.966 33.5208C108.117 34.0977 107.135 34.4471 106.113 34.5355C105.173 34.5355 104.912 34.0107 105.303 32.8008L106.568 28.8416H110.196L111.266 25.535H107.635L108.9 21.5757H106.048Z" fill="#FFCC00"/>
<path fill-rule="evenodd" clip-rule="evenodd" d="M125.022 37.6819L137.269 0.000305176H132.02L119.774 37.6819H125.022Z" fill="#FFCC00"/>
<path fill-rule="evenodd" clip-rule="evenodd" d="M135.029 17.0997L133.491 21.8099L132.721 23.2405L130.253 30.84L130.092 32.2733L128.235 38.0386C130.572 38.6849 132.965 39.1111 135.382 39.3117L137.339 39.8836C139.398 40.0485 141.468 40.0381 143.525 39.8527C144.933 39.6787 146.319 39.3604 147.661 38.9026L150 37.9161C151.008 37.6759 152.042 37.5584 153.079 37.5662C156.38 37.6604 157.792 37.6927 157.792 37.6927L159.427 32.6649L160.421 30.5009L162.888 22.9013L163.338 20.5785L164.62 16.6973L165.356 15.3287L167.826 7.756V6.8328L169.844 0.627447C169.844 0.627447 168.402 0.595149 165.132 0.436348C163.85 0.415142 162.574 0.597754 161.35 0.977348L159.938 1.07155C158.599 1.55065 157.213 1.89247 155.803 2.09165C153.734 2.27773 151.653 2.28854 149.583 2.12395L147.532 2.31505C145.067 2.09681 142.63 1.63842 140.255 0.946395L138.267 7.0562L137.627 8.1059L135.157 15.7055L135.029 17.0997Z" fill="#373737"/>
<path fill-rule="evenodd" clip-rule="evenodd" d="M144.711 17.132C146.77 17.2962 148.84 17.2854 150.897 17.0997C152.317 16.897 153.713 16.5558 155.065 16.081L157.535 8.48139C156.179 8.94489 154.784 9.28584 153.367 9.50014C151.308 9.66971 149.239 9.68047 147.179 9.53244L144.711 17.132ZM139.806 32.3446C141.865 32.5091 143.935 32.4983 145.993 32.3123C147.403 32.113 148.788 31.7717 150.129 31.2936L152.596 23.7196C151.25 24.1785 149.867 24.5203 148.46 24.7383C146.402 24.9083 144.334 24.9191 142.274 24.7706L139.806 32.3446ZM159.938 1.02985L157.535 8.51099C159.3 7.91127 161.151 7.59955 163.016 7.5878C166.383 7.682 167.826 7.7466 167.826 7.7466L170.294 0.206237C170.294 0.206237 168.884 0.173938 165.486 0.0151367C163.591 0.0245089 161.713 0.368011 159.938 1.02985ZM130.284 30.8481C132.739 31.5183 135.25 31.9557 137.787 32.1535C138.492 32.2181 139.165 32.2814 139.806 32.3137L137.37 39.8863C136.728 39.854 136.053 39.7921 135.351 39.7275C132.815 39.5292 130.303 39.0922 127.848 38.4221L130.284 30.8481Z" fill="white"/>
<path fill-rule="evenodd" clip-rule="evenodd" d="M147.179 9.55798L149.615 2.11182C148.95 2.0771 148.287 2.01334 147.627 1.92072C145.086 1.70747 142.573 1.23856 140.126 0.521118L137.69 8.06148C140.143 8.73167 142.656 9.16905 145.191 9.36688C145.864 9.46243 146.543 9.49338 147.179 9.55798ZM132.752 23.2418L135.222 15.6678C137.675 16.338 140.188 16.7754 142.723 16.9732C143.428 17.0378 144.101 17.101 144.742 17.1333L142.275 24.706C141.634 24.6737 140.959 24.6118 140.256 24.5472C137.72 24.349 135.207 23.9119 132.752 23.2418ZM160.42 30.4968C160.42 30.4968 158.977 30.4659 155.61 30.338C153.745 30.3502 151.893 30.661 150.129 31.2612L147.66 38.8985C149.437 38.2914 151.296 37.9587 153.173 37.9121C156.571 37.9767 157.982 38.0386 157.982 38.0386L160.417 30.4968M152.597 23.6872L155.067 16.0877C156.836 15.501 158.685 15.1901 160.549 15.1658C163.915 15.26 165.358 15.3246 165.358 15.3246L162.888 22.9242C162.888 22.9242 161.478 22.8596 158.08 22.7654C156.217 22.8079 154.371 23.1184 152.597 23.6872Z" fill="white"/>
<path d="M171.177 1.31649C171.177 1.0256 171.292 0.746624 171.498 0.540933C171.704 0.335242 171.983 0.219687 172.274 0.219687C172.565 0.219687 172.844 0.335242 173.049 0.540933C173.255 0.746624 173.37 1.0256 173.37 1.31649C173.378 1.4651 173.355 1.61365 173.303 1.75313C173.251 1.89261 173.172 2.02011 173.069 2.12789C172.967 2.23567 172.843 2.32148 172.706 2.38012C172.57 2.43876 172.422 2.46899 172.274 2.46899C172.125 2.46899 171.978 2.43876 171.841 2.38012C171.704 2.32148 171.581 2.23567 171.478 2.12789C171.376 2.02011 171.296 1.89261 171.244 1.75313C171.192 1.61365 171.17 1.4651 171.177 1.31649ZM172.288 2.69187C172.645 2.68402 172.985 2.5347 173.231 2.27677C173.478 2.01883 173.613 1.67341 173.605 1.31649C173.597 0.95957 173.447 0.620387 173.19 0.373559C172.932 0.12673 172.586 -0.00752623 172.229 0.000326036C171.872 0.0081783 171.533 0.157495 171.286 0.415429C171.04 0.673363 170.905 1.01878 170.913 1.37571C170.921 1.73263 171.07 2.07181 171.328 2.31864C171.586 2.56547 171.932 2.69972 172.288 2.69187ZM171.996 1.43357H172.259L172.668 2.10646H172.932L172.494 1.43357C172.551 1.43389 172.606 1.42262 172.658 1.40047C172.709 1.37831 172.756 1.34575 172.794 1.30482C172.832 1.26389 172.862 1.21547 172.881 1.1626C172.9 1.10973 172.907 1.05353 172.904 0.997543C172.904 0.705511 172.729 0.561513 172.349 0.561513H171.764V2.1105H171.996V1.43357ZM171.996 1.22902V0.763379H172.318C172.493 0.763379 172.668 0.792986 172.668 0.997543C172.668 1.23171 172.493 1.26131 172.29 1.26131H171.996V1.22902Z" fill="white"/>
</svg>
